<svg width="29" height="33" viewBox="0 0 29 33" fill="none" xmlns="http://www.w3.org/2000/svg">
<path d="M19.0319 9.95393C19.253 9.68466 19.5595 9.52146 19.8867 9.49878C20.214 9.47609 20.5363 9.59569 20.7858 9.83234C21.0353 10.069 21.1923 10.4042 21.2238 10.7672C21.2553 11.1302 21.1588 11.4926 20.9547 11.7779L14.8318 21.6333C14.7251 21.7805 14.5928 21.9022 14.4429 21.9912C14.2929 22.0803 14.1283 22.1348 13.959 22.1514C13.7897 22.1681 13.6191 22.1466 13.4574 22.0883C13.2957 22.03 13.1463 21.936 13.018 21.8119L8.25724 17.2088C8.12526 17.09 8.01613 16.9429 7.93638 16.7762C7.85663 16.6095 7.80789 16.4266 7.79306 16.2385C7.77823 16.0503 7.79762 15.8608 7.85007 15.6812C7.90252 15.5016 7.98696 15.3356 8.09834 15.1931C8.20973 15.0505 8.34579 14.9344 8.4984 14.8517C8.65101 14.7689 8.81704 14.7212 8.98659 14.7113C9.15615 14.7015 9.32575 14.7297 9.48527 14.7943C9.6448 14.859 9.79099 14.9587 9.91512 15.0875L13.6826 18.7285L19.0025 9.99756C19.0121 9.98234 19.0225 9.96773 19.0336 9.9538L19.0319 9.95393Z" fill="#F2D98D"/>
</svg>
