<svg width="38" height="38" viewBox="0 0 38 38" fill="none" xmlns="http://www.w3.org/2000/svg">
<path d="M24.6968 11.6129C24.9837 11.2988 25.3815 11.1084 25.8061 11.0819C26.2308 11.0555 26.6491 11.195 26.9728 11.4711C27.2965 11.7472 27.5003 12.1382 27.5412 12.5617C27.5821 12.9852 27.4569 13.408 27.1919 13.741L19.2465 25.2388C19.1081 25.4106 18.9364 25.5526 18.7418 25.6565C18.5472 25.7604 18.3337 25.8239 18.114 25.8434C17.8943 25.8628 17.6729 25.8378 17.4631 25.7697C17.2532 25.7017 17.0593 25.592 16.8928 25.4473L10.715 20.077C10.5438 19.9384 10.4022 19.7668 10.2987 19.5722C10.1952 19.3777 10.1319 19.1644 10.1127 18.9449C10.0934 18.7254 10.1186 18.5043 10.1867 18.2948C10.2547 18.0852 10.3643 17.8915 10.5088 17.7253C10.6534 17.559 10.8299 17.4235 11.028 17.327C11.226 17.2304 11.4415 17.1747 11.6615 17.1632C11.8815 17.1517 12.1016 17.1847 12.3086 17.2601C12.5156 17.3355 12.7053 17.4518 12.8664 17.6022L17.7552 21.8499L24.6587 11.6639C24.6712 11.6461 24.6846 11.6291 24.699 11.6128L24.6968 11.6129Z" fill="#0066FF"/>
</svg>
