<svg width="37" height="37" viewBox="0 0 37 37" fill="none" xmlns="http://www.w3.org/2000/svg">
<path d="M18.5 1C15.7152 1 13.0445 2.10625 11.0754 4.07538C9.10625 6.04451 8 8.71523 8 11.5C8 13.9833 8.5285 15.609 9.96875 17.4062L18.5 27.25L27.0312 17.4062C28.4715 15.609 29 13.9833 29 11.5C29 8.71523 27.8938 6.04451 25.9246 4.07538C23.9555 2.10625 21.2848 1 18.5 1V1Z" stroke="#B29655" stroke-width="2" stroke-linecap="round" stroke-linejoin="round"/>
<path d="M6.25 24.0002C3.01075 25.2725 1 27.0417 1 29C1 32.8675 8.83475 36 18.5 36C28.1652 36 36 32.8675 36 29C36 27.0417 33.9892 25.2725 30.75 24.0002" stroke="#B29655" stroke-width="2" stroke-linecap="round" stroke-linejoin="round"/>
<path d="M18.5 13.25C19.4665 13.25 20.25 12.4665 20.25 11.5C20.25 10.5335 19.4665 9.75 18.5 9.75C17.5335 9.75 16.75 10.5335 16.75 11.5C16.75 12.4665 17.5335 13.25 18.5 13.25Z" stroke="#B29655" stroke-width="2" stroke-linecap="round" stroke-linejoin="round"/>
</svg>
